<?xml version="1.0" standalone="no"?>
<!DOCTYPE svg PUBLIC "-//W3C//DTD SVG 20010904//EN"
 "http://www.w3.org/TR/2001/REC-SVG-20010904/DTD/svg10.dtd">
<svg version="1.0" xmlns="http://www.w3.org/2000/svg"
 width="256.000000pt" height="256.000000pt" viewBox="0 0 256.000000 256.000000"
 preserveAspectRatio="xMidYMid meet">
<metadata>
Created by potrace 1.15, written by Peter Selinger 2001-2017
</metadata>
<g transform="translate(0.000000,256.000000) scale(0.100000,-0.100000)"
fill="#000000" stroke="none">
<path d="M1200 2536 c-97 -34 -214 -96 -400 -211 -252 -156 -343 -198 -461
-215 -126 -18 -145 -47 -135 -203 46 -689 251 -1214 617 -1574 109 -107 176
-161 314 -252 136 -90 154 -90 290 0 138 91 205 145 314 252 366 360 571 885
617 1574 10 156 -9 185 -135 203 -118 17 -209 59 -461 215 -186 115 -317 184
-408 214 -75 26 -73 26 -152 -3z"/>
</g>
</svg>
